<svg width="14" height="17" viewBox="0 0 14 17" fill="none" xmlns="http://www.w3.org/2000/svg">
<path d="M11.9496 2.06217C9.21603 -0.687391 4.78397 -0.687391 2.05036 2.06217C1.40133 2.71054 0.8856 3.48503 0.533493 4.34012C0.181385 5.19521 0 6.11365 0 7.04145C0 7.96925 0.181385 8.88768 0.533493 9.74278C0.8856 10.5979 1.40133 11.3724 2.05036 12.0207L6.99956 17L11.9496 12.0207C12.5987 11.3724 13.1144 10.5979 13.4665 9.74278C13.8186 8.88768 14 7.96925 14 7.04145C14 6.11365 13.8186 5.19521 13.4665 4.34012C13.1144 3.48503 12.5987 2.71054 11.9496 2.06217ZM6.99956 9.39464C6.41504 9.39464 5.86639 9.162 5.4525 8.73968C5.04276 8.31982 4.81265 7.7509 4.81265 7.15776C4.81265 6.56463 5.04276 5.99571 5.4525 5.57585C5.86552 5.15353 6.41504 4.92089 6.99956 4.92089C7.58409 4.92089 8.13361 5.15353 8.54663 5.57585C8.95636 5.99571 9.18648 6.56463 9.18648 7.15776C9.18648 7.7509 8.95636 8.31982 8.54663 8.73968C8.13361 9.162 7.58409 9.39464 6.99956 9.39464Z" fill="white"/>
</svg>
