<svg width="14" height="17" viewBox="0 0 14 17" fill="none" xmlns="http://www.w3.org/2000/svg">
<path d="M6.24112 0.0454016C5.36939 0.213852 4.63241 0.613923 4.01757 1.25825C3.63434 1.65832 3.41957 1.96574 3.21743 2.40371C2.69944 3.5197 2.71628 4.8252 3.25954 5.9454C3.69751 6.85503 4.51871 7.62148 5.44098 7.98365C6.02213 8.21527 6.27902 8.25739 6.98652 8.2616C7.67716 8.2616 8.04776 8.19422 8.56574 7.97944C9.20165 7.71413 9.88387 7.17509 10.3218 6.59814C10.9156 5.81906 11.2188 4.71149 11.1136 3.73027C11.0041 2.73219 10.6545 1.9868 9.95546 1.25825C9.41642 0.689726 8.76367 0.3065 8.00143 0.104359C7.58452 -0.00513458 6.67067 -0.0346127 6.24112 0.0454016Z" fill="#FFFDF8"/>
<path d="M4.22816 9.12913C4.06813 9.15018 3.7565 9.21757 3.53751 9.27231C2.01724 9.67659 0.905468 10.7799 0.34958 12.4308C0.0674246 13.2772 0.0295231 13.551 0.00846676 14.9491C-0.00837833 16.0525 -0.00416706 16.2293 0.059002 16.3894C0.160073 16.6547 0.277988 16.7852 0.518031 16.8989L0.732806 17H6.98655H13.2403L13.4551 16.8989C13.6951 16.7852 13.813 16.6547 13.9141 16.3894C13.9773 16.2293 13.9815 16.0525 13.9646 14.9491C13.9436 13.5552 13.9057 13.273 13.6235 12.4392C13.2782 11.399 12.7139 10.5778 11.9558 10.0009C11.3831 9.56289 10.5072 9.22599 9.68176 9.12492C9.248 9.07438 4.6535 9.07859 4.22816 9.12913Z" fill="#FFFDF8"/>
</svg>
